Coordinates
version=1
nRows=13
nColumns=38
inDegrees=no

Units are S.I. units (second, meters, Newtons, ...)
If the header above contains a line with 'inDegrees', this indicates whether rotational values are in degrees (yes) or radians (no).

endheader
time	pelvis_tilt	pelvis_list	pelvis_rotation	pelvis_tx	pelvis_ty	pelvis_tz	hip_flexion_r	hip_adduction_r	hip_rotation_r	knee_angle_r	ankle_angle_r	subtalar_angle_r	mtp_angle_r	hip_flexion_l	hip_adduction_l	hip_rotation_l	knee_angle_l	ankle_angle_l	subtalar_angle_l	mtp_angle_l	lumbar_extension	lumbar_bending	lumbar_rotation	arm_flex_r	arm_add_r	arm_rot_r	elbow_flex_r	pro_sup_r	wrist_flex_r	wrist_dev_r	arm_flex_l	arm_add_l	arm_rot_l	elbow_flex_l	pro_sup_l	wrist_flex_l	wrist_dev_l
1.31	-0.141715	0.0625838	0.0331576	0.741626	0.982341	-0.332101	-0.131353	-0.188649	-0.282456	-1.46558	-0.0801945	0.00521278	0.00300839	0.710806	0.0476759	-0.198809	-0.479181	0.0977183	0.0170338	0.0012027	-0.0694431	-0.13515	-0.0148586	-0.119212	-0.314732	0.119829	1.343	1.4102	0.0338441	-0.0330095	-0.69568	-0.682215	0.155932	1.62365	1.33701	0.0274995	-0.0146651
1.32	-0.135848	0.0550639	0.0450222	0.740594	0.976716	-0.333585	-0.088931	-0.190938	-0.283539	-1.58712	-0.0608737	0.00521278	0.00300839	0.698716	0.0461299	-0.191046	-0.519338	0.121163	0.0170338	0.0012027	-0.0793656	-0.129877	-0.0367291	-0.136653	-0.316883	0.130303	1.28455	1.40036	0.0338441	-0.0330095	-0.637378	-0.702546	0.186878	1.62919	1.3382	0.0274995	-0.0146651
1.33	-0.135408	0.0470976	0.0548512	0.738836	0.969926	-0.335076	-0.0317714	-0.192767	-0.281605	-1.70649	-0.0436585	0.00521278	0.00300839	0.69721	0.0434262	-0.179949	-0.584036	0.159485	0.0170338	0.0012027	-0.0840644	-0.123392	-0.0581821	-0.154216	-0.319185	0.138643	1.2266	1.39917	0.0338441	-0.0330095	-0.574134	-0.721992	0.221083	1.63571	1.34146	0.0274995	-0.0146651
1.34	-0.140793	0.0387141	0.0624446	0.736294	0.962388	-0.336446	0.0411272	-0.192884	-0.275928	-1.8215	-0.0285773	0.00521278	0.00300839	0.703555	0.0397867	-0.166037	-0.664808	0.211449	0.0170338	0.0012027	-0.083215	-0.115882	-0.0789745	-0.171943	-0.321283	0.143897	1.17065	1.40711	0.0338441	-0.0330095	-0.506237	-0.739555	0.257078	1.64268	1.34786	0.0274995	-0.0146651
1.35	-0.151547	0.0300609	0.0676199	0.733015	0.954729	-0.337551	0.129247	-0.190023	-0.266135	-1.92941	-0.0153391	0.00521278	0.00300839	0.713532	0.0351508	-0.150634	-0.751976	0.273729	0.0170338	0.0012027	-0.077312	-0.107569	-0.0988798	-0.189967	-0.322922	0.145554	1.11839	1.42286	0.0338441	-0.0330095	-0.434539	-0.754298	0.292869	1.64986	1.35818	0.0274995	-0.0146651
1.36	-0.16637	0.0213301	0.0702038	0.729156	0.947556	-0.338296	0.23034	-0.183142	-0.252308	-2.02707	-0.00335894	0.00521278	0.00300839	0.721913	0.029267	-0.135442	-0.835859	0.341354	0.0170338	0.0012027	-0.0676391	-0.0986812	-0.117673	-0.208478	-0.324047	0.143707	1.07154	1.44347	0.0338441	-0.0330095	-0.360535	-0.765416	0.326047	1.65741	1.37262	0.0274995	-0.0146651
1.37	-0.183256	0.0126881	0.0700601	0.724936	0.941355	-0.338678	0.340523	-0.171624	-0.235037	-2.11114	0.00812882	0.00521278	0.00300839	0.723154	0.0217985	-0.122168	-0.907917	0.408428	0.0170338	0.0012027	-0.0560606	-0.0893564	-0.135138	-0.227688	-0.324861	0.139072	1.03179	1.46488	0.0338441	-0.0330095	-0.286273	-0.772298	0.354057	1.66591	1.39066	0.0274995	-0.0146651
1.38	-0.199807	0.00425263	0.0671608	0.720647	0.936546	-0.338751	0.454688	-0.15541	-0.215408	-2.17845	0.0198896	0.00521278	0.00300839	0.712149	0.0124174	-0.112276	-0.961582	0.468846	0.0170338	0.0012027	-0.0447139	-0.0795408	-0.15111	-0.247791	-0.325806	0.132825	1.00056	1.48293	0.0338441	-0.0330095	-0.214121	-0.774566	0.374559	1.67624	1.41106	0.0274995	-0.0146651
1.39	-0.213697	-0.0040358	0.0616567	0.716664	0.933555	-0.338572	0.567186	-0.135054	-0.194899	-2.22643	0.0325002	0.00521278	0.00300839	0.68493	0.000928711	-0.106866	-0.992653	0.516829	0.0170338	0.0012027	-0.0356529	-0.0690004	-0.165535	-0.268919	-0.327478	0.126326	0.978781	1.49441	0.0338441	-0.0330095	-0.146425	-0.772105	0.385845	1.68946	1.43193	0.0274995	-0.0146651
1.4	-0.223033	-0.0123971	0.0539259	0.713376	0.932698	-0.338205	0.672655	-0.111647	-0.175198	-2.25334	0.046224	0.00521278	0.00300839	0.639251	-0.0126446	-0.106612	-0.99931	0.547302	0.0170338	0.0012027	-0.0304279	-0.057374	-0.17852	-0.291112	-0.330477	0.120791	0.966732	1.49785	0.0338441	-0.0330095	-0.0851711	-0.765077	0.387189	1.70655	1.45099	0.0274995	-0.0146651
1.41	-0.226731	-0.0211138	0.0445587	0.71113	0.934097	-0.337739	0.766769	-0.0866231	-0.157948	-2.25848	0.0609903	0.00521278	0.00300839	0.574909	-0.028024	-0.111739	-0.981904	0.556237	0.0170338	0.0012027	-0.0297928	-0.0442704	-0.190324	-0.314321	-0.335267	0.11702	0.963944	1.49376	0.0338441	-0.0330095	-0.031724	-0.75392	0.379064	1.72825	1.46588	0.0274995	-0.0146651
1.42	-0.224706	-0.0304378	0.0342704	0.710145	0.937654	-0.337283	0.846724	-0.0615084	-0.144479	-2.24218	0.0764596	0.00521278	0.00300839	0.493782	-0.0446956	-0.122052	-0.942661	0.541029	0.0170338	0.0012027	-0.0335604	-0.0293973	-0.201292	-0.338452	-0.342073	0.115227	0.969286	1.48428	0.0338441	-0.0330095	0.0133063	-0.739334	0.363133	1.75494	1.4745	0.0274995	-0.0146651
1.43	-0.217875	-0.0405172	0.023773	0.710467	0.943087	-0.336912	0.911409	-0.0376763	-0.13561	-2.20557	0.0921059	0.00521278	0.00300839	0.399612	-0.0619726	-0.136987	-0.885403	0.500913	0.0170338	0.0012027	-0.0406542	-0.0126779	-0.211762	-0.363432	-0.350836	0.114992	0.981186	1.47244	0.0338441	-0.0330095	0.0500562	-0.722252	0.342018	1.78655	1.47554	0.0274995	-0.0146651
